<svg width="64" height="69" viewBox="0 0 64 69" fill="none" xmlns="http://www.w3.org/2000/svg">
<path d="M33.8736 28.7109L0.909576 62.7369C-0.303192 63.9892 -0.303192 66.0142 0.909576 67.2532C2.12234 68.4922 4.08342 68.5056 5.28328 67.2532L14.9338 57.2879C15.8886 57.9008 16.9078 58.3804 18.0044 58.6868C23.7844 60.3122 32.777 60.5386 41.5502 54.5302C43.1242 53.451 42.2985 51.1462 40.4149 51.1462H38.3377C37.6797 51.1462 37.1507 50.6 37.1507 49.9205C37.1507 49.3743 37.499 48.908 37.9893 48.7481L50.5944 44.8446C51.033 44.7114 51.4201 44.4316 51.6781 44.0319C52.2458 43.1793 52.7877 42.3133 53.3037 41.4207C54.1037 40.0485 53.1102 38.3565 51.562 38.3565H46.5819C45.9239 38.3565 45.3949 37.8103 45.3949 37.1308C45.3949 36.5846 45.7433 36.1183 46.2336 35.9584L56.6711 32.721C57.2646 32.5345 57.7549 32.0816 57.9871 31.482C61.7415 21.7032 63.4574 11.4581 63.9864 4.8901C64.0896 3.57116 63.5994 2.27887 62.6962 1.34629C61.7931 0.413705 60.5416 -0.0925539 59.2644 0.014027C48.4527 0.919965 27.4228 5.38304 15.6692 17.5199C5.33489 28.1914 5.25748 40.2616 7.14114 47.4692C7.41208 48.5217 8.68936 48.7481 9.43766 47.9754L30.6611 26.0731C31.461 25.2471 32.777 25.2471 33.5769 26.0731C34.2736 26.7925 34.3639 27.8849 33.8607 28.7109H33.8736Z" fill="white"/>
</svg>
