<svg width="48" height="49" viewBox="0 0 48 49" fill="none" xmlns="http://www.w3.org/2000/svg">
<path d="M39.0019 19.8331C39.0019 24.1356 37.605 28.11 35.2517 31.3345L47.121 43.2109C48.293 44.3826 48.293 46.2855 47.121 47.4572C45.9491 48.6289 44.0459 48.6289 42.874 47.4572L31.0046 35.5808C27.7795 37.9429 23.8043 39.3302 19.501 39.3302C8.72855 39.3302 0 30.6034 0 19.8331C0 9.06278 8.72855 0.335938 19.501 0.335938C30.2734 0.335938 39.0019 9.06278 39.0019 19.8331ZM19.501 33.3311C26.9544 33.3311 33.0016 27.2851 33.0016 19.8331C33.0016 12.381 26.9544 6.33506 19.501 6.33506C12.0475 6.33506 6.00029 12.381 6.00029 19.8331C6.00029 27.2851 12.0475 33.3311 19.501 33.3311Z" fill="#973342"/>
</svg>
