<svg width="52" height="69" viewBox="0 0 52 69" fill="none" xmlns="http://www.w3.org/2000/svg">
<path d="M31.5714 34.7026H20.4286C9.14643 34.7026 0 43.6978 0 54.7935C0 56.8106 1.6633 58.4464 3.71429 58.4464H48.2857C50.3367 58.4464 52 56.8106 52 54.7935C52 43.6978 42.8536 34.7026 31.5714 34.7026ZM5.68634 52.9671C6.6033 45.764 12.8607 40.1819 20.4286 40.1819H31.5714C39.1346 40.1819 45.3955 45.7697 46.3125 52.9671H5.68634ZM26 29.2232C34.2051 29.2232 40.8571 22.6811 40.8571 14.6116C40.8571 6.54212 34.2051 0 26 0C17.7949 0 11.1429 6.54212 11.1429 14.6116C11.1429 22.6822 17.7938 29.2232 26 29.2232ZM26 5.47935C31.1199 5.47935 35.2857 9.57631 35.2857 14.6116C35.2857 19.6469 31.1199 23.7439 26 23.7439C20.8801 23.7439 16.7143 19.6458 16.7143 14.6116C16.7143 9.57631 20.8813 5.47935 26 5.47935Z" fill="#973342"/>
</svg>
